<svg xmlns="http://www.w3.org/2000/svg" width="75" viewBox="0 0 75 75" height="75" version="1.0"><path fill="#ECE8E7" d="M 70.316406 12.894531 C 70.316406 13.175781 70.289062 13.460938 70.234375 13.738281 C 70.179688 14.019531 70.097656 14.289062 69.988281 14.550781 C 69.878906 14.816406 69.742188 15.066406 69.585938 15.300781 C 69.425781 15.539062 69.246094 15.757812 69.046875 15.957031 C 68.84375 16.160156 68.625 16.339844 68.386719 16.496094 C 68.148438 16.65625 67.898438 16.789062 67.636719 16.898438 C 67.371094 17.007812 67.101562 17.089844 66.820312 17.144531 C 66.542969 17.199219 66.257812 17.226562 65.972656 17.226562 C 65.6875 17.226562 65.40625 17.199219 65.125 17.144531 C 64.847656 17.089844 64.574219 17.007812 64.3125 16.898438 C 64.046875 16.789062 63.796875 16.65625 63.5625 16.496094 C 63.324219 16.339844 63.105469 16.160156 62.902344 15.957031 C 62.699219 15.757812 62.519531 15.539062 62.363281 15.300781 C 62.203125 15.066406 62.070312 14.816406 61.960938 14.550781 C 61.851562 14.289062 61.769531 14.019531 61.714844 13.738281 C 61.65625 13.460938 61.628906 13.175781 61.628906 12.894531 C 61.628906 12.609375 61.65625 12.328125 61.714844 12.046875 C 61.769531 11.769531 61.851562 11.496094 61.960938 11.234375 C 62.070312 10.972656 62.203125 10.722656 62.363281 10.484375 C 62.519531 10.246094 62.699219 10.027344 62.902344 9.828125 C 63.105469 9.625 63.324219 9.445312 63.5625 9.289062 C 63.796875 9.128906 64.046875 8.996094 64.3125 8.886719 C 64.574219 8.777344 64.847656 8.695312 65.125 8.640625 C 65.40625 8.585938 65.6875 8.558594 65.972656 8.558594 C 66.257812 8.558594 66.542969 8.585938 66.820312 8.640625 C 67.101562 8.695312 67.371094 8.777344 67.636719 8.886719 C 67.898438 8.996094 68.148438 9.128906 68.386719 9.289062 C 68.625 9.445312 68.84375 9.625 69.046875 9.828125 C 69.246094 10.027344 69.425781 10.246094 69.585938 10.484375 C 69.742188 10.722656 69.878906 10.972656 69.988281 11.234375 C 70.097656 11.496094 70.179688 11.769531 70.234375 12.046875 C 70.289062 12.328125 70.316406 12.609375 70.316406 12.894531 Z M 70.316406 12.894531"/><path fill="#ECE8E7" d="M 67.851562 74.078125 C 67.851562 74.550781 62.515625 74.933594 55.929688 74.933594 C 49.34375 74.933594 44.003906 74.550781 44.003906 74.078125 C 44.003906 73.601562 49.34375 73.214844 55.929688 73.214844 C 62.515625 73.214844 67.851562 73.601562 67.851562 74.078125 Z M 67.851562 74.078125"/><path fill="#ECE8E7" d="M 28.082031 74.078125 C 28.082031 74.550781 22.746094 74.933594 16.160156 74.933594 C 9.574219 74.933594 4.234375 74.550781 4.234375 74.078125 C 4.234375 73.601562 9.574219 73.214844 16.160156 73.214844 C 22.746094 73.214844 28.082031 73.601562 28.082031 74.078125 Z M 28.082031 74.078125"/><path fill="#F4F2F2" d="M -0.332031 1.546875 L -0.332031 61.703125 L 37.03125 61.703125 L 37.03125 7.722656 C 37.03125 6.894531 36.359375 6.226562 35.53125 6.226562 L 25.335938 6.226562 C 24.507812 6.226562 23.835938 6.894531 23.835938 7.722656 L 23.835938 19.902344 C 23.835938 20.730469 23.164062 21.402344 22.335938 21.402344 L 14.363281 21.402344 C 13.535156 21.402344 12.863281 20.730469 12.863281 19.902344 L 12.863281 1.546875 C 12.863281 0.71875 12.191406 0.0507812 11.363281 0.0507812 L 1.167969 0.0507812 C 0.339844 0.0507812 -0.332031 0.71875 -0.332031 1.546875 Z M -0.332031 1.546875"/><path fill="#EAE5E5" d="M 3.023438 71.015625 L 72.097656 71.015625 C 74.253906 69.808594 75.886719 67.777344 76.566406 65.351562 C 78.417969 63.636719 79.582031 61.183594 79.582031 58.460938 C 79.582031 55.175781 77.894531 52.285156 75.335938 50.601562 C 75.109375 45.617188 70.988281 41.644531 65.933594 41.644531 C 63.179688 41.644531 60.699219 42.824219 58.980469 44.710938 C 57.28125 43.039062 54.949219 42.011719 52.375 42.011719 C 51.507812 42.011719 50.664062 42.128906 49.867188 42.347656 C 48.464844 38.917969 45.09375 36.5 41.148438 36.5 C 36.992188 36.5 33.457031 39.199219 32.214844 42.933594 C 30.679688 41.839844 28.800781 41.199219 26.769531 41.199219 C 23.757812 41.199219 21.074219 42.613281 19.351562 44.816406 C 17.707031 43.40625 15.566406 42.554688 13.222656 42.554688 C 8.027344 42.554688 3.816406 46.761719 3.816406 51.949219 C 3.816406 52.386719 3.84375 52.820312 3.90625 53.246094 C -0.0351562 54.371094 -2.917969 57.992188 -2.917969 62.285156 C -2.917969 66.246094 -0.457031 69.636719 3.023438 71.015625 Z M 3.023438 71.015625"/><path fill="#F4F2F2" d="M 65.871094 51.019531 C 65.84375 51.035156 65.816406 51.042969 65.785156 51.042969 C 65.777344 51.105469 65.722656 51.15625 65.652344 51.15625 C 65.539062 51.15625 58.105469 51.058594 57.796875 40.722656 C 57.796875 40.691406 57.769531 37.59375 56.398438 36.382812 C 55.96875 36.003906 55.441406 35.847656 54.839844 35.917969 C 51.867188 36.273438 50.808594 38.609375 50.796875 38.632812 C 50.769531 38.695312 50.703125 38.726562 50.640625 38.710938 C 50.574219 38.691406 50.53125 38.628906 50.539062 38.566406 C 50.542969 38.523438 51.105469 34.164062 56.839844 33.621094 C 62.617188 33.070312 68.402344 37.960938 69.085938 42.347656 C 69.707031 46.3125 68.625 49.230469 65.871094 51.019531 Z M 65.871094 51.019531"/><path fill="#F4F2F2" d="M 84.066406 47.644531 C 84.0625 47.710938 84.011719 47.765625 83.945312 47.773438 C 83.875 47.785156 83.816406 47.742188 83.796875 47.679688 C 83.792969 47.660156 83.257812 45.859375 81.128906 45.304688 C 80.707031 45.195312 80.316406 45.253906 79.96875 45.484375 C 78.851562 46.226562 78.523438 48.480469 78.519531 48.5 C 77.445312 54.894531 73.375 55.417969 72.070312 55.417969 C 71.824219 55.417969 71.675781 55.402344 71.667969 55.398438 C 71.609375 55.390625 71.566406 55.351562 71.554688 55.296875 C 71.535156 55.289062 71.519531 55.28125 71.5 55.269531 C 69.652344 53.667969 69.148438 51.410156 70.003906 48.546875 C 70.957031 45.382812 75.710938 42.363281 79.910156 43.347656 C 84.089844 44.332031 84.066406 47.613281 84.066406 47.644531 Z M 84.066406 47.644531"/><path fill="#DAD8D9" d="M 70.492188 65.136719 L 70.832031 65.136719 C 70.835938 65.125 70.839844 65.113281 70.839844 65.097656 C 70.839844 64.910156 70.816406 46.058594 79.234375 44.105469 C 79.332031 44.085938 79.390625 43.988281 79.367188 43.894531 C 79.34375 43.800781 79.25 43.738281 79.15625 43.761719 C 70.464844 45.777344 70.480469 64.3125 70.484375 65.101562 C 70.484375 65.113281 70.492188 65.125 70.492188 65.136719 Z M 70.492188 65.136719"/><path fill="#DAD8D9" d="M 65.777344 65.148438 L 65.542969 65.125 C 65.734375 63.332031 66.285156 56.96875 65.226562 50.425781 C 63.863281 41.988281 60.457031 36.808594 55.101562 35.023438 L 55.179688 34.800781 C 60.621094 36.613281 64.082031 41.855469 65.460938 50.386719 C 66.523438 56.960938 65.972656 63.347656 65.777344 65.148438 Z M 65.777344 65.148438"/><path fill="#DAD8D9" d="M 56.269531 36.277344 C 55.863281 35.976562 55.382812 35.855469 54.839844 35.917969 C 51.867188 36.273438 50.808594 38.609375 50.796875 38.632812 C 50.769531 38.695312 50.703125 38.726562 50.640625 38.710938 C 50.574219 38.691406 50.53125 38.628906 50.539062 38.566406 C 50.542969 38.527344 50.972656 35.214844 54.875 34.003906 C 55.300781 34.429688 55.792969 35.128906 56.269531 36.277344 Z M 56.269531 36.277344"/><path fill="#F4F2F2" d="M 68.375 65.136719 L 68.738281 65.136719 C 68.761719 65.046875 68.785156 64.957031 68.808594 64.867188 C 69.597656 61.863281 70.34375 59.027344 69.625 56.691406 C 69.597656 56.597656 69.496094 56.546875 69.402344 56.574219 C 69.308594 56.601562 69.257812 56.703125 69.285156 56.796875 C 69.972656 59.035156 69.242188 61.824219 68.464844 64.777344 C 68.433594 64.894531 68.40625 65.015625 68.375 65.136719 Z M 68.375 65.136719"/><path fill="#F4F2F2" d="M 68.515625 51.960938 C 68.496094 52.011719 68.453125 52.042969 68.402344 52.046875 C 66.023438 52.300781 64.65625 53.945312 62.78125 58.8125 C 61.378906 62.453125 60.613281 63.796875 59.191406 63.796875 C 59.089844 63.796875 58.984375 63.789062 58.878906 63.777344 C 58.230469 63.699219 57.625 63.394531 57.085938 62.890625 C 56.542969 62.382812 56.066406 61.679688 55.679688 60.800781 C 54.472656 58.066406 54.398438 54.296875 55.515625 52.738281 C 57.152344 50.453125 59.664062 51.152344 60.070312 51.285156 C 65.539062 48.699219 68.457031 51.792969 68.488281 51.820312 C 68.519531 51.859375 68.53125 51.914062 68.515625 51.960938 Z M 68.515625 51.960938"/><path fill="#F4F2F2" d="M 69.597656 56.851562 C 69.578125 56.886719 69.542969 56.914062 69.5 56.921875 L 69.476562 56.921875 C 69.441406 56.921875 69.410156 56.90625 69.382812 56.882812 C 69.355469 56.859375 66.636719 54.273438 64.664062 54.675781 C 64.609375 54.6875 64.554688 54.664062 64.527344 54.621094 C 64.496094 54.574219 64.492188 54.519531 64.523438 54.472656 C 65.601562 52.753906 66.753906 51.953125 68.375 51.78125 C 68.40625 51.777344 68.433594 51.785156 68.457031 51.796875 C 68.484375 51.816406 71.34375 53.566406 69.597656 56.851562 Z M 69.597656 56.851562"/><path fill="#F4F2F2" d="M 57.988281 58.855469 C 57.910156 58.855469 57.839844 58.804688 57.816406 58.730469 C 56.046875 52.671875 59.984375 51.277344 60.023438 51.261719 C 60.117188 51.234375 60.214844 51.28125 60.246094 51.375 C 60.277344 51.464844 60.230469 51.566406 60.136719 51.597656 C 59.988281 51.648438 56.488281 52.910156 58.160156 58.628906 C 58.1875 58.722656 58.132812 58.820312 58.039062 58.847656 C 58.019531 58.855469 58.003906 58.855469 57.988281 58.855469 Z M 57.988281 58.855469"/><path fill="#DAD8D9" d="M 73.359375 71.183594 C 72.691406 67.710938 69.636719 65.089844 65.960938 65.089844 L 65.765625 65.074219 C 65.441406 57.992188 60.003906 52.246094 53.050781 51.425781 C 51.328125 45.382812 45.761719 40.957031 39.15625 40.957031 C 34.167969 40.957031 29.769531 43.480469 27.179688 47.316406 C 19.964844 48.011719 14.300781 54.003906 14.144531 61.347656 C 10.679688 62.664062 8.222656 66.007812 8.222656 69.925781 C 8.222656 70.351562 8.25 70.773438 8.308594 71.183594 Z M 73.359375 71.183594"/><path fill="#DAD8D9" d="M 3.949219 62.011719 L 3.949219 70.996094 C 3.949219 71.226562 3.761719 71.414062 3.53125 71.414062 L 0.804688 71.414062 C 0.574219 71.414062 0.390625 71.226562 0.390625 70.996094 L 0.390625 62.011719 C 0.390625 61.882812 0.449219 61.761719 0.550781 61.679688 L 1.914062 60.628906 C 2.0625 60.511719 2.273438 60.511719 2.425781 60.628906 L 3.789062 61.679688 C 3.890625 61.761719 3.949219 61.882812 3.949219 62.011719 Z M 3.949219 62.011719"/><path fill="#DAD8D9" d="M 10.773438 62.011719 L 10.773438 70.996094 C 10.773438 71.226562 10.585938 71.414062 10.355469 71.414062 L 7.628906 71.414062 C 7.398438 71.414062 7.214844 71.226562 7.214844 70.996094 L 7.214844 62.011719 C 7.214844 61.882812 7.273438 61.761719 7.375 61.679688 L 8.738281 60.628906 C 8.886719 60.511719 9.097656 60.511719 9.25 60.628906 L 10.613281 61.679688 C 10.714844 61.761719 10.773438 61.882812 10.773438 62.011719 Z M 10.773438 62.011719"/><path fill="#DAD8D9" d="M 17.597656 62.011719 L 17.597656 70.996094 C 17.597656 71.226562 17.410156 71.414062 17.179688 71.414062 L 14.453125 71.414062 C 14.222656 71.414062 14.039062 71.226562 14.039062 70.996094 L 14.039062 62.011719 C 14.039062 61.882812 14.097656 61.761719 14.199219 61.679688 L 15.5625 60.628906 C 15.710938 60.511719 15.921875 60.511719 16.074219 60.628906 L 17.433594 61.679688 C 17.539062 61.761719 17.597656 61.882812 17.597656 62.011719 Z M 17.597656 62.011719"/><path fill="#DAD8D9" d="M 24.421875 62.011719 L 24.421875 70.996094 C 24.421875 71.226562 24.234375 71.414062 24.003906 71.414062 L 21.277344 71.414062 C 21.046875 71.414062 20.859375 71.226562 20.859375 70.996094 L 20.859375 62.011719 C 20.859375 61.882812 20.921875 61.761719 21.023438 61.679688 L 22.386719 60.628906 C 22.535156 60.511719 22.746094 60.511719 22.898438 60.628906 L 24.257812 61.679688 C 24.363281 61.761719 24.421875 61.882812 24.421875 62.011719 Z M 24.421875 62.011719"/><path fill="#DAD8D9" d="M 31.246094 62.011719 L 31.246094 70.996094 C 31.246094 71.226562 31.058594 71.414062 30.828125 71.414062 L 28.101562 71.414062 C 27.871094 71.414062 27.683594 71.226562 27.683594 70.996094 L 27.683594 62.011719 C 27.683594 61.882812 27.746094 61.761719 27.847656 61.679688 L 29.210938 60.628906 C 29.359375 60.511719 29.570312 60.511719 29.722656 60.628906 L 31.082031 61.679688 C 31.1875 61.761719 31.246094 61.882812 31.246094 62.011719 Z M 31.246094 62.011719"/><path fill="#DAD8D9" d="M 38.070312 62.011719 L 38.070312 70.996094 C 38.070312 71.226562 37.882812 71.414062 37.652344 71.414062 L 34.925781 71.414062 C 34.695312 71.414062 34.507812 71.226562 34.507812 70.996094 L 34.507812 62.011719 C 34.507812 61.882812 34.570312 61.761719 34.671875 61.679688 L 36.035156 60.628906 C 36.183594 60.511719 36.394531 60.511719 36.546875 60.628906 L 37.90625 61.679688 C 38.011719 61.761719 38.070312 61.882812 38.070312 62.011719 Z M 38.070312 62.011719"/><path fill="#DAD8D9" d="M 44.894531 62.011719 L 44.894531 70.996094 C 44.894531 71.226562 44.707031 71.414062 44.476562 71.414062 L 41.75 71.414062 C 41.519531 71.414062 41.332031 71.226562 41.332031 70.996094 L 41.332031 62.011719 C 41.332031 61.882812 41.394531 61.761719 41.496094 61.679688 L 42.859375 60.628906 C 43.007812 60.511719 43.21875 60.511719 43.371094 60.628906 L 44.730469 61.679688 C 44.832031 61.761719 44.894531 61.882812 44.894531 62.011719 Z M 44.894531 62.011719"/><path fill="#DAD8D9" d="M 51.71875 62.011719 L 51.71875 70.996094 C 51.71875 71.226562 51.53125 71.414062 51.300781 71.414062 L 48.574219 71.414062 C 48.34375 71.414062 48.15625 71.226562 48.15625 70.996094 L 48.15625 62.011719 C 48.15625 61.882812 48.21875 61.761719 48.320312 61.679688 L 49.683594 60.628906 C 49.832031 60.511719 50.042969 60.511719 50.195312 60.628906 L 51.554688 61.679688 C 51.65625 61.761719 51.71875 61.882812 51.71875 62.011719 Z M 51.71875 62.011719"/><path fill="#DAD8D9" d="M 58.542969 62.011719 L 58.542969 70.996094 C 58.542969 71.226562 58.355469 71.414062 58.125 71.414062 L 55.398438 71.414062 C 55.167969 71.414062 54.980469 71.226562 54.980469 70.996094 L 54.980469 62.011719 C 54.980469 61.882812 55.042969 61.761719 55.144531 61.679688 L 56.503906 60.628906 C 56.65625 60.511719 56.867188 60.511719 57.015625 60.628906 L 58.378906 61.679688 C 58.480469 61.761719 58.542969 61.882812 58.542969 62.011719 Z M 58.542969 62.011719"/><path fill="#DAD8D9" d="M 65.367188 62.011719 L 65.367188 70.996094 C 65.367188 71.226562 65.179688 71.414062 64.949219 71.414062 L 62.222656 71.414062 C 61.992188 71.414062 61.804688 71.226562 61.804688 70.996094 L 61.804688 62.011719 C 61.804688 61.882812 61.867188 61.761719 61.96875 61.679688 L 63.328125 60.628906 C 63.480469 60.511719 63.691406 60.511719 63.839844 60.628906 L 65.203125 61.679688 C 65.304688 61.761719 65.367188 61.882812 65.367188 62.011719 Z M 65.367188 62.011719"/><path fill="#DAD8D9" d="M 72.191406 62.011719 L 72.191406 70.996094 C 72.191406 71.226562 72.003906 71.414062 71.773438 71.414062 L 69.046875 71.414062 C 68.816406 71.414062 68.628906 71.226562 68.628906 70.996094 L 68.628906 62.011719 C 68.628906 61.882812 68.691406 61.761719 68.792969 61.679688 L 70.152344 60.628906 C 70.304688 60.511719 70.515625 60.511719 70.664062 60.628906 L 72.027344 61.679688 C 72.128906 61.761719 72.191406 61.882812 72.191406 62.011719 Z M 72.191406 62.011719"/><path fill="#DAD8D9" d="M 1.777344 65.378906 L 78.316406 65.378906 L 78.316406 68.453125 L 1.777344 68.453125 Z M 1.777344 65.378906"/><path fill="#FFF" d="M 3.621094 62.011719 L 3.621094 70.996094 C 3.621094 71.226562 3.433594 71.414062 3.203125 71.414062 L 0.480469 71.414062 C 0.25 71.414062 0.0625 71.226562 0.0625 70.996094 L 0.0625 62.011719 C 0.0625 61.882812 0.121094 61.761719 0.222656 61.679688 L 1.585938 60.628906 C 1.738281 60.511719 1.949219 60.511719 2.097656 60.628906 L 3.460938 61.679688 C 3.5625 61.761719 3.621094 61.882812 3.621094 62.011719 Z M 3.621094 62.011719"/><path fill="#FFF" d="M 10.445312 62.011719 L 10.445312 70.996094 C 10.445312 71.226562 10.257812 71.414062 10.027344 71.414062 L 7.304688 71.414062 C 7.074219 71.414062 6.886719 71.226562 6.886719 70.996094 L 6.886719 62.011719 C 6.886719 61.882812 6.945312 61.761719 7.046875 61.679688 L 8.410156 60.628906 C 8.5625 60.511719 8.773438 60.511719 8.921875 60.628906 L 10.285156 61.679688 C 10.386719 61.761719 10.445312 61.882812 10.445312 62.011719 Z M 10.445312 62.011719"/><path fill="#FFF" d="M 17.269531 62.011719 L 17.269531 70.996094 C 17.269531 71.226562 17.082031 71.414062 16.851562 71.414062 L 14.128906 71.414062 C 13.898438 71.414062 13.710938 71.226562 13.710938 70.996094 L 13.710938 62.011719 C 13.710938 61.882812 13.769531 61.761719 13.871094 61.679688 L 15.234375 60.628906 C 15.386719 60.511719 15.597656 60.511719 15.746094 60.628906 L 17.109375 61.679688 C 17.210938 61.761719 17.269531 61.882812 17.269531 62.011719 Z M 17.269531 62.011719"/><path fill="#FFF" d="M 24.09375 62.011719 L 24.09375 70.996094 C 24.09375 71.226562 23.90625 71.414062 23.675781 71.414062 L 20.953125 71.414062 C 20.722656 71.414062 20.535156 71.226562 20.535156 70.996094 L 20.535156 62.011719 C 20.535156 61.882812 20.59375 61.761719 20.695312 61.679688 L 22.058594 60.628906 C 22.210938 60.511719 22.417969 60.511719 22.570312 60.628906 L 23.933594 61.679688 C 24.035156 61.761719 24.09375 61.882812 24.09375 62.011719 Z M 24.09375 62.011719"/><path fill="#FFF" d="M 30.917969 62.011719 L 30.917969 70.996094 C 30.917969 71.226562 30.730469 71.414062 30.5 71.414062 L 27.777344 71.414062 C 27.546875 71.414062 27.359375 71.226562 27.359375 70.996094 L 27.359375 62.011719 C 27.359375 61.882812 27.417969 61.761719 27.519531 61.679688 L 28.882812 60.628906 C 29.035156 60.511719 29.242188 60.511719 29.394531 60.628906 L 30.757812 61.679688 C 30.859375 61.761719 30.917969 61.882812 30.917969 62.011719 Z M 30.917969 62.011719"/><path fill="#FFF" d="M 37.742188 62.011719 L 37.742188 70.996094 C 37.742188 71.226562 37.554688 71.414062 37.324219 71.414062 L 34.601562 71.414062 C 34.371094 71.414062 34.183594 71.226562 34.183594 70.996094 L 34.183594 62.011719 C 34.183594 61.882812 34.242188 61.761719 34.34375 61.679688 L 35.707031 60.628906 C 35.859375 60.511719 36.066406 60.511719 36.21875 60.628906 L 37.582031 61.679688 C 37.683594 61.761719 37.742188 61.882812 37.742188 62.011719 Z M 37.742188 62.011719"/><path fill="#FFF" d="M 44.566406 62.011719 L 44.566406 70.996094 C 44.566406 71.226562 44.378906 71.414062 44.148438 71.414062 L 41.425781 71.414062 C 41.195312 71.414062 41.007812 71.226562 41.007812 70.996094 L 41.007812 62.011719 C 41.007812 61.882812 41.066406 61.761719 41.167969 61.679688 L 42.53125 60.628906 C 42.679688 60.511719 42.890625 60.511719 43.042969 60.628906 L 44.40625 61.679688 C 44.507812 61.761719 44.566406 61.882812 44.566406 62.011719 Z M 44.566406 62.011719"/><path fill="#FFF" d="M 51.390625 62.011719 L 51.390625 70.996094 C 51.390625 71.226562 51.203125 71.414062 50.972656 71.414062 L 48.25 71.414062 C 48.019531 71.414062 47.832031 71.226562 47.832031 70.996094 L 47.832031 62.011719 C 47.832031 61.882812 47.890625 61.761719 47.992188 61.679688 L 49.355469 60.628906 C 49.503906 60.511719 49.714844 60.511719 49.867188 60.628906 L 51.230469 61.679688 C 51.332031 61.761719 51.390625 61.882812 51.390625 62.011719 Z M 51.390625 62.011719"/><path fill="#FFF" d="M 58.214844 62.011719 L 58.214844 70.996094 C 58.214844 71.226562 58.027344 71.414062 57.796875 71.414062 L 55.074219 71.414062 C 54.84375 71.414062 54.65625 71.226562 54.65625 70.996094 L 54.65625 62.011719 C 54.65625 61.882812 54.714844 61.761719 54.816406 61.679688 L 56.179688 60.628906 C 56.328125 60.511719 56.539062 60.511719 56.691406 60.628906 L 58.054688 61.679688 C 58.15625 61.761719 58.214844 61.882812 58.214844 62.011719 Z M 58.214844 62.011719"/><path fill="#FFF" d="M 65.039062 62.011719 L 65.039062 70.996094 C 65.039062 71.226562 64.851562 71.414062 64.621094 71.414062 L 61.898438 71.414062 C 61.664062 71.414062 61.480469 71.226562 61.480469 70.996094 L 61.480469 62.011719 C 61.480469 61.882812 61.539062 61.761719 61.640625 61.679688 L 63.003906 60.628906 C 63.152344 60.511719 63.363281 60.511719 63.515625 60.628906 L 64.878906 61.679688 C 64.980469 61.761719 65.039062 61.882812 65.039062 62.011719 Z M 65.039062 62.011719"/><path fill="#FFF" d="M 71.863281 62.011719 L 71.863281 70.996094 C 71.863281 71.226562 71.675781 71.414062 71.445312 71.414062 L 68.71875 71.414062 C 68.488281 71.414062 68.304688 71.226562 68.304688 70.996094 L 68.304688 62.011719 C 68.304688 61.882812 68.363281 61.761719 68.464844 61.679688 L 69.828125 60.628906 C 69.976562 60.511719 70.1875 60.511719 70.339844 60.628906 L 71.703125 61.679688 C 71.804688 61.761719 71.863281 61.882812 71.863281 62.011719 Z M 71.863281 62.011719"/><path fill="#FFF" d="M 1.449219 65.378906 L 77.988281 65.378906 L 77.988281 68.453125 L 1.449219 68.453125 Z M 1.449219 65.378906"/><path fill="#DAD8D9" d="M -1.429688 70.992188 L 80.625 70.992188 L 80.625 71.414062 L -1.429688 71.414062 Z M -1.429688 70.992188"/><path fill="#EB695C" d="M 54.78125 5.425781 C 54.78125 7.152344 52.585938 10.027344 51.277344 11.582031 C 51.023438 11.886719 50.652344 12.03125 50.292969 12.011719 L 50.289062 12.015625 L 49.347656 12.015625 C 49.6875 12.015625 50.035156 11.875 50.28125 11.582031 C 51.589844 10.027344 53.785156 7.152344 53.785156 5.425781 C 53.785156 2.976562 51.796875 0.992188 49.347656 0.992188 L 50.34375 0.992188 C 52.792969 0.992188 54.78125 2.976562 54.78125 5.425781 Z M 54.78125 5.425781"/><path fill="#FFA59D" d="M 49.347656 0.992188 C 46.890625 0.992188 44.90625 2.976562 44.90625 5.429688 C 44.90625 7.152344 47.109375 10.027344 48.410156 11.582031 C 48.898438 12.164062 49.792969 12.164062 50.285156 11.582031 C 51.585938 10.027344 53.785156 7.152344 53.785156 5.429688 C 53.785156 2.976562 51.796875 0.992188 49.347656 0.992188 Z M 49.347656 7.183594 C 48.183594 7.183594 47.234375 6.238281 47.234375 5.074219 C 47.234375 3.914062 48.183594 2.972656 49.347656 2.972656 C 50.511719 2.972656 51.457031 3.914062 51.457031 5.074219 C 51.457031 6.238281 50.511719 7.183594 49.347656 7.183594 Z M 49.347656 7.183594"/><path fill="#ECE8E7" d="M 10.800781 2.582031 L 10.800781 4.789062 C 10.800781 5.109375 10.539062 5.371094 10.21875 5.371094 L 8.003906 5.371094 C 7.683594 5.371094 7.421875 5.109375 7.421875 4.789062 L 7.421875 2.582031 C 7.421875 2.261719 7.683594 2 8.003906 2 L 10.21875 2 C 10.539062 2 10.800781 2.261719 10.800781 2.582031 Z M 10.800781 2.582031"/><path fill="#ECE8E7" d="M 10.800781 7.085938 L 10.800781 9.292969 C 10.800781 9.613281 10.539062 9.875 10.21875 9.875 L 8.003906 9.875 C 7.683594 9.875 7.421875 9.613281 7.421875 9.292969 L 7.421875 7.085938 C 7.421875 6.765625 7.683594 6.503906 8.003906 6.503906 L 10.21875 6.503906 C 10.539062 6.503906 10.800781 6.765625 10.800781 7.085938 Z M 10.800781 7.085938"/><path fill="#ECE8E7" d="M 10.800781 11.589844 L 10.800781 13.796875 C 10.800781 14.117188 10.539062 14.378906 10.21875 14.378906 L 8.003906 14.378906 C 7.683594 14.378906 7.421875 14.117188 7.421875 13.796875 L 7.421875 11.589844 C 7.421875 11.269531 7.683594 11.007812 8.003906 11.007812 L 10.21875 11.007812 C 10.539062 11.007812 10.800781 11.269531 10.800781 11.589844 Z M 10.800781 11.589844"/><path fill="#ECE8E7" d="M 5.636719 30.496094 L 5.636719 32.703125 C 5.636719 33.023438 5.375 33.285156 5.054688 33.285156 L 2.84375 33.285156 C 2.519531 33.285156 2.261719 33.023438 2.261719 32.703125 L 2.261719 30.496094 C 2.261719 30.175781 2.519531 29.914062 2.84375 29.914062 L 5.054688 29.914062 C 5.375 29.914062 5.636719 30.175781 5.636719 30.496094 Z M 5.636719 30.496094"/><path fill="#ECE8E7" d="M 5.636719 35 L 5.636719 37.207031 C 5.636719 37.527344 5.375 37.789062 5.054688 37.789062 L 2.84375 37.789062 C 2.519531 37.789062 2.261719 37.527344 2.261719 37.207031 L 2.261719 35 C 2.261719 34.679688 2.519531 34.417969 2.84375 34.417969 L 5.054688 34.417969 C 5.375 34.417969 5.636719 34.679688 5.636719 35 Z M 5.636719 35"/><path fill="#ECE8E7" d="M 5.636719 39.503906 L 5.636719 41.710938 C 5.636719 42.03125 5.375 42.292969 5.054688 42.292969 L 2.84375 42.292969 C 2.519531 42.292969 2.261719 42.03125 2.261719 41.710938 L 2.261719 39.503906 C 2.261719 39.183594 2.519531 38.921875 2.84375 38.921875 L 5.054688 38.921875 C 5.375 38.921875 5.636719 39.183594 5.636719 39.503906 Z M 5.636719 39.503906"/><path fill="#ECE8E7" d="M 29.4375 8.503906 L 29.4375 10.710938 C 29.4375 11.03125 29.175781 11.292969 28.855469 11.292969 L 26.644531 11.292969 C 26.320312 11.292969 26.0625 11.03125 26.0625 10.710938 L 26.0625 8.503906 C 26.0625 8.183594 26.320312 7.921875 26.644531 7.921875 L 28.855469 7.921875 C 29.175781 7.921875 29.4375 8.183594 29.4375 8.503906 Z M 29.4375 8.503906"/><path fill="#ECE8E7" d="M 29.4375 13.007812 L 29.4375 15.214844 C 29.4375 15.535156 29.175781 15.796875 28.855469 15.796875 L 26.644531 15.796875 C 26.320312 15.796875 26.0625 15.535156 26.0625 15.214844 L 26.0625 13.007812 C 26.0625 12.6875 26.320312 12.425781 26.644531 12.425781 L 28.855469 12.425781 C 29.175781 12.425781 29.4375 12.6875 29.4375 13.007812 Z M 29.4375 13.007812"/><path fill="#2A2A51" d="M 30.300781 61.691406 C 30.300781 61.691406 29.828125 62.574219 30.023438 62.855469 C 30.457031 63.46875 32.632812 63.90625 33.269531 63.507812 C 33.546875 63.332031 33.652344 62.539062 33.472656 62.355469 C 33.292969 62.171875 30.300781 61.691406 30.300781 61.691406 Z M 30.300781 61.691406"/><path fill="#2A2A51" d="M 35.777344 67.84375 C 35.664062 68.34375 35.183594 68.625 34.472656 68.574219 C 33.480469 68.507812 31.832031 67.546875 31.277344 67.207031 C 31.152344 67.128906 31.011719 67.078125 30.871094 67.0625 C 30.335938 66.988281 28.976562 66.765625 28.511719 66.332031 C 28.230469 66.066406 28.515625 65.347656 28.828125 64.753906 C 28.605469 65.246094 28.46875 65.746094 28.695312 65.957031 C 29.15625 66.390625 30.519531 66.617188 31.046875 66.6875 C 31.195312 66.710938 31.335938 66.757812 31.457031 66.835938 C 32.015625 67.175781 33.664062 68.136719 34.65625 68.207031 C 35.164062 68.242188 35.554688 68.109375 35.777344 67.84375 Z M 35.777344 67.84375"/><path fill="#FFDA90" d="M 35.351562 68.125 C 35.15625 68.195312 34.921875 68.222656 34.65625 68.203125 C 33.664062 68.136719 32.015625 67.175781 31.457031 66.835938 C 31.332031 66.757812 31.195312 66.707031 31.046875 66.691406 C 30.546875 66.621094 29.300781 66.417969 28.78125 66.03125 C 28.746094 66.007812 28.71875 65.988281 28.691406 65.960938 C 28.179688 65.480469 29.539062 63.503906 29.539062 63.503906 L 29.859375 62.8125 L 29.976562 62.578125 C 29.949219 62.710938 33.277344 63.464844 33.464844 63.230469 C 33.464844 63.230469 33.523438 63.878906 33.632812 64.296875 C 33.664062 64.417969 33.699219 64.519531 33.738281 64.582031 C 33.773438 64.628906 33.8125 64.675781 33.855469 64.71875 C 33.917969 64.785156 33.984375 64.84375 34.066406 64.902344 C 34.117188 64.945312 34.175781 64.984375 34.234375 65.023438 L 34.238281 65.023438 C 34.3125 65.078125 34.394531 65.128906 34.476562 65.183594 C 34.78125 65.378906 35.117188 65.589844 35.371094 65.859375 C 35.445312 65.941406 35.523438 66.03125 35.582031 66.125 C 36.226562 67.136719 36.035156 67.882812 35.351562 68.125 Z M 35.351562 68.125"/><path fill="#C67131" d="M 33.738281 64.582031 C 33.738281 64.585938 33.738281 64.585938 33.738281 64.585938 C 33.664062 64.65625 33.578125 64.714844 33.484375 64.753906 C 33.445312 64.773438 33.394531 64.785156 33.363281 64.757812 C 33.34375 64.738281 33.339844 64.710938 33.34375 64.6875 C 33.347656 64.660156 33.359375 64.636719 33.371094 64.617188 C 33.433594 64.511719 33.507812 64.414062 33.597656 64.328125 C 33.605469 64.320312 33.621094 64.308594 33.632812 64.296875 C 33.664062 64.417969 33.699219 64.519531 33.738281 64.582031 Z M 33.738281 64.582031"/><path fill="#C67131" d="M 34.066406 64.902344 C 34.0625 64.90625 34.058594 64.910156 34.054688 64.914062 C 33.980469 64.984375 33.898438 65.042969 33.804688 65.082031 C 33.761719 65.097656 33.710938 65.113281 33.679688 65.082031 C 33.664062 65.066406 33.65625 65.039062 33.660156 65.015625 C 33.664062 64.992188 33.675781 64.96875 33.691406 64.945312 C 33.734375 64.863281 33.789062 64.789062 33.855469 64.71875 C 33.917969 64.785156 33.984375 64.84375 34.066406 64.902344 Z M 34.066406 64.902344"/><path fill="#C67131" d="M 34.476562 65.183594 C 34.460938 65.195312 34.449219 65.210938 34.4375 65.222656 C 34.363281 65.292969 34.28125 65.347656 34.1875 65.390625 C 34.144531 65.410156 34.09375 65.421875 34.0625 65.390625 C 34.046875 65.371094 34.039062 65.347656 34.042969 65.320312 C 34.046875 65.296875 34.058594 65.273438 34.074219 65.25 C 34.117188 65.171875 34.171875 65.09375 34.234375 65.023438 L 34.238281 65.023438 C 34.3125 65.078125 34.394531 65.128906 34.476562 65.183594 Z M 34.476562 65.183594"/><path fill="#F4BF6C" d="M 34.578125 67.242188 C 34.667969 67.667969 34.96875 67.992188 35.351562 68.125 C 36.035156 67.882812 36.226562 67.136719 35.582031 66.125 C 35.523438 66.03125 35.449219 65.941406 35.371094 65.859375 C 34.804688 66.046875 34.453125 66.636719 34.578125 67.242188 Z M 34.578125 67.242188"/><path fill="#F4BF6C" d="M 28.691406 65.960938 C 28.71875 65.988281 28.746094 66.007812 28.78125 66.03125 C 28.835938 66.023438 28.894531 66.015625 28.949219 66.003906 C 29.964844 65.792969 30.617188 64.796875 30.40625 63.785156 C 30.324219 63.398438 30.128906 63.066406 29.859375 62.8125 L 29.539062 63.503906 C 29.539062 63.503906 28.179688 65.480469 28.691406 65.960938 Z M 28.691406 65.960938"/><path fill="#2A2A51" d="M 33.152344 63.0625 L 31.117188 67.738281 C 30.984375 68.050781 31.125 68.410156 31.4375 68.546875 C 31.75 68.679688 32.109375 68.539062 32.246094 68.226562 L 34.28125 63.550781 Z M 33.152344 63.0625"/><path fill="#2A2A51" d="M 29.683594 67.160156 C 29.558594 67.449219 29.691406 67.789062 29.980469 67.914062 L 32.894531 69.175781 C 33.183594 69.300781 33.523438 69.167969 33.648438 68.878906 C 33.777344 68.589844 33.644531 68.25 33.351562 68.125 L 30.4375 66.863281 C 30.148438 66.738281 29.808594 66.871094 29.683594 67.160156 Z M 29.683594 67.160156"/><path fill="#444577" d="M 30.15625 54.574219 L 28.847656 63.164062 C 28.847656 63.828125 32.007812 63.898438 32.515625 63.164062 C 33.5625 60.054688 36.179688 51.992188 36.371094 48.667969 C 36.554688 45.480469 33.855469 35.761719 33.855469 35.761719 L 25.128906 38.257812 C 25.128906 38.257812 25.28125 41.199219 28.152344 45.511719 C 29.925781 48.175781 30.640625 51.410156 30.15625 54.574219 Z M 30.15625 54.574219"/><path fill="#2A2A51" d="M 30.753906 62.734375 C 30.75 62.734375 30.742188 62.734375 30.738281 62.734375 C 30.707031 62.726562 30.6875 62.691406 30.695312 62.660156 C 30.714844 62.597656 32.488281 56.355469 33.28125 50.050781 C 34.074219 43.769531 29.28125 38.539062 29.234375 38.488281 C 29.210938 38.464844 29.210938 38.425781 29.238281 38.402344 C 29.261719 38.382812 29.300781 38.382812 29.320312 38.40625 C 29.371094 38.460938 34.199219 43.726562 33.402344 50.066406 C 32.605469 56.378906 30.828125 62.628906 30.8125 62.691406 C 30.804688 62.71875 30.78125 62.734375 30.753906 62.734375 Z M 30.753906 62.734375"/><path fill="#FFB0B0" d="M 36.238281 16.90625 L 37.289062 15.503906 C 37.289062 15.503906 39.179688 16.628906 39.65625 14.6875 C 40.128906 12.742188 40.59375 11.804688 40.429688 10.703125 C 40.261719 9.597656 38.570312 9.320312 36.8125 9.476562 C 35.054688 9.628906 34.136719 11.761719 34.269531 12.488281 C 34.398438 13.21875 33.425781 15.039062 33.425781 15.039062 L 35.574219 16.90625 Z M 36.238281 16.90625"/><path fill="#2A2A51" d="M 35.976562 12.417969 C 35.910156 13.039062 34.507812 14.050781 33.800781 13.640625 C 33.09375 13.226562 32.699219 8.609375 34.707031 7.835938 C 36.71875 7.066406 39.75 7.058594 41.355469 9.097656 C 41.898438 9.789062 40.839844 11.515625 37.984375 10.117188 C 37.984375 10.117188 37.910156 12.824219 37.171875 12.292969 C 36.835938 12.050781 36.792969 10.847656 36.378906 10.839844 C 35.972656 10.828125 36.070312 11.566406 35.976562 12.417969 Z M 35.976562 12.417969"/><path fill="#EB695C" d="M 32.152344 18.632812 C 31.753906 19.195312 31.800781 19.960938 32.1875 20.53125 C 33.199219 22.019531 36.59375 24.921875 39.984375 25.558594 C 43.480469 26.21875 48.046875 24.363281 49.121094 22.777344 C 49.515625 22.195312 48.621094 20.457031 47.960938 20.214844 C 46.648438 19.734375 42.835938 22.03125 40.050781 20.117188 C 37.265625 18.203125 35.957031 16.570312 33.308594 17.714844 C 32.792969 17.964844 32.40625 18.273438 32.152344 18.632812 Z M 32.152344 18.632812"/><path fill="#7F8CDD" d="M 6.273438 61.140625 L 15.757812 61.140625 L 7.546875 56.410156 L 7.835938 55.910156 L 16.046875 60.644531 L 11.304688 52.445312 L 11.804688 52.160156 L 16.546875 60.355469 L 16.546875 50.910156 L 17.125 50.910156 L 17.125 60.355469 L 21.855469 52.175781 L 22.355469 52.464844 L 17.625 60.644531 L 25.820312 55.921875 L 26.109375 56.421875 L 17.914062 61.140625 L 27.378906 61.140625 L 27.378906 61.71875 L 17.914062 61.71875 L 26.109375 66.441406 L 25.820312 66.9375 L 17.625 62.21875 L 22.355469 70.394531 L 21.855469 70.683594 L 17.125 62.503906 L 17.125 71.96875 L 16.546875 71.96875 L 16.546875 62.503906 L 11.804688 70.703125 L 11.304688 70.414062 L 16.046875 62.21875 L 7.835938 66.949219 L 7.546875 66.449219 L 15.757812 61.71875 L 6.273438 61.71875 Z M 6.273438 61.140625"/><path fill="#7F8CDD" d="M 3.617188 61.441406 C 3.617188 68.726562 9.535156 74.636719 16.835938 74.636719 C 24.144531 74.636719 30.0625 68.726562 30.0625 61.441406 C 30.0625 54.15625 24.144531 48.242188 16.835938 48.242188 C 9.535156 48.242188 3.617188 54.15625 3.617188 61.441406 Z M 6.273438 61.441406 C 6.273438 55.617188 11.007812 50.898438 16.835938 50.898438 C 22.675781 50.898438 27.402344 55.617188 27.402344 61.441406 C 27.402344 67.261719 22.675781 71.980469 16.835938 71.980469 C 11.007812 71.980469 6.273438 67.261719 6.273438 61.441406 Z M 6.273438 61.441406"/><path fill="#7F8CDD" d="M 14.605469 61.441406 C 14.605469 62.671875 15.605469 63.667969 16.839844 63.667969 C 18.074219 63.667969 19.074219 62.671875 19.074219 61.441406 C 19.074219 60.210938 18.074219 59.210938 16.839844 59.210938 C 15.605469 59.210938 14.605469 60.210938 14.605469 61.441406 Z M 14.605469 61.441406"/><path fill="#2A2A51" d="M 24.898438 41.496094 L 24.003906 38.835938 L 25.644531 38.285156 L 26.726562 41.496094"/><path fill="#7F8CDD" d="M 47.472656 61.140625 L 56.957031 61.140625 L 48.742188 56.410156 L 49.03125 55.910156 L 57.242188 60.644531 L 52.503906 52.445312 L 53 52.160156 L 57.742188 60.355469 L 57.742188 50.910156 L 58.320312 50.910156 L 58.320312 60.355469 L 63.054688 52.175781 L 63.550781 52.464844 L 58.820312 60.644531 L 67.015625 55.921875 L 67.304688 56.421875 L 59.109375 61.140625 L 68.574219 61.140625 L 68.574219 61.71875 L 59.109375 61.71875 L 67.304688 66.441406 L 67.015625 66.9375 L 58.820312 62.21875 L 63.550781 70.394531 L 63.054688 70.683594 L 58.320312 62.503906 L 58.320312 71.96875 L 57.742188 71.96875 L 57.742188 62.503906 L 53 70.703125 L 52.503906 70.414062 L 57.242188 62.21875 L 49.03125 66.949219 L 48.742188 66.449219 L 56.953125 61.71875 L 47.472656 61.71875 Z M 47.472656 61.140625"/><path fill="#7F8CDD" d="M 44.8125 61.441406 C 44.8125 68.726562 50.730469 74.636719 58.035156 74.636719 C 65.34375 74.636719 71.261719 68.726562 71.261719 61.441406 C 71.261719 54.15625 65.34375 48.242188 58.035156 48.242188 C 50.730469 48.242188 44.8125 54.15625 44.8125 61.441406 Z M 47.46875 61.441406 C 47.46875 55.617188 52.203125 50.898438 58.035156 50.898438 C 63.871094 50.898438 68.597656 55.617188 68.597656 61.441406 C 68.597656 67.261719 63.871094 71.980469 58.035156 71.980469 C 52.203125 71.980469 47.46875 67.261719 47.46875 61.441406 Z M 47.46875 61.441406"/><path fill="#2A2A51" d="M 44.8125 61.445312 C 44.8125 68.726562 50.730469 74.636719 58.03125 74.636719 C 65.34375 74.636719 71.261719 68.726562 71.261719 61.445312 C 71.261719 54.15625 65.34375 48.242188 58.03125 48.242188 C 50.730469 48.242188 44.8125 54.15625 44.8125 61.445312 Z M 45.703125 61.441406 C 45.703125 54.644531 51.222656 49.132812 58.03125 49.132812 C 64.847656 49.132812 70.371094 54.644531 70.371094 61.441406 C 70.371094 68.234375 64.847656 73.75 58.03125 73.75 C 51.222656 73.75 45.703125 68.234375 45.703125 61.441406 Z M 45.703125 61.441406"/><path fill="#2A2A51" d="M 3.601562 61.445312 C 3.601562 68.726562 9.519531 74.636719 16.824219 74.636719 C 24.132812 74.636719 30.050781 68.726562 30.050781 61.445312 C 30.050781 54.15625 24.132812 48.242188 16.824219 48.242188 C 9.519531 48.242188 3.601562 54.15625 3.601562 61.445312 Z M 4.492188 61.441406 C 4.492188 54.644531 10.011719 49.132812 16.824219 49.132812 C 23.640625 49.132812 29.160156 54.644531 29.160156 61.441406 C 29.160156 68.234375 23.640625 73.75 16.824219 73.75 C 10.011719 73.75 4.492188 68.234375 4.492188 61.441406 Z M 4.492188 61.441406"/><path fill="#7F8CDD" d="M 55.800781 61.441406 C 55.800781 62.671875 56.800781 63.667969 58.035156 63.667969 C 59.269531 63.667969 60.269531 62.671875 60.269531 61.441406 C 60.269531 60.210938 59.269531 59.210938 58.035156 59.210938 C 56.800781 59.210938 55.800781 60.210938 55.800781 61.441406 Z M 55.800781 61.441406"/><path fill="#717CD3" d="M 48.984375 35.300781 C 47.882812 35.300781 47.523438 36.347656 47.816406 37.410156 L 49.480469 43.148438 L 27.28125 43.148438 L 25.644531 38.285156 L 24.003906 38.835938 L 25.222656 42.457031 L 25.347656 44.324219 L 16.039062 60.207031 C 15.542969 61.046875 16.078125 62.121094 17.050781 62.238281 L 33.726562 64.214844 L 51.042969 48.121094 L 57.207031 61.011719 C 57.410156 61.445312 57.929688 61.625 58.359375 61.421875 C 58.792969 61.214844 58.976562 60.699219 58.769531 60.269531 L 52.332031 46.796875 Z M 49.984375 44.878906 L 50.410156 46.359375 L 33.609375 61.988281 L 27.863281 44.878906 Z M 17.859375 60.671875 L 26.402344 45.964844 L 31.867188 62.242188 Z M 17.859375 60.671875"/><path fill="#2A2A51" d="M 25.261719 43.082031 L 27.257812 43.082031 L 25.644531 38.285156 L 24.003906 38.835938 L 25.222656 42.457031 Z M 25.261719 43.082031"/><path fill="#2A2A51" d="M 21.132812 39.207031 C 21.132812 39.660156 21.378906 40.085938 21.785156 40.304688 L 25.835938 42.507812 L 30.609375 40.519531 C 30.921875 40.386719 31.160156 40.117188 31.238281 39.789062 C 31.328125 39.4375 31.25 39.0625 31.03125 38.769531 C 30.8125 38.472656 30.476562 38.300781 30.113281 38.285156 L 22.441406 37.949219 C 22.105469 37.933594 21.765625 38.058594 21.519531 38.296875 C 21.269531 38.53125 21.132812 38.859375 21.132812 39.207031 Z M 21.132812 39.207031"/><path fill="#444577" d="M 31.21875 63.300781 C 31.21875 64.679688 32.339844 65.796875 33.722656 65.796875 C 35.105469 65.796875 36.226562 64.679688 36.226562 63.300781 C 36.226562 61.921875 35.105469 60.804688 33.722656 60.804688 C 32.339844 60.804688 31.21875 61.921875 31.21875 63.300781 Z M 31.21875 63.300781"/><path fill="#2A2A51" d="M 32.324219 63.300781 C 32.324219 64.070312 32.949219 64.695312 33.722656 64.695312 C 34.496094 64.695312 35.121094 64.070312 35.121094 63.300781 C 35.121094 62.53125 34.496094 61.90625 33.722656 61.90625 C 32.949219 61.90625 32.324219 62.53125 32.324219 63.300781 Z M 32.324219 63.300781"/><path fill="#2A2A51" d="M 34.292969 63.667969 L 36.640625 59.140625 C 36.796875 58.84375 36.679688 58.472656 36.378906 58.316406 C 36.078125 58.160156 35.707031 58.277344 35.550781 58.578125 L 33.203125 63.105469 Z M 34.292969 63.667969"/><path fill="#2A2A51" d="M 38.035156 59.816406 C 38.179688 59.535156 38.070312 59.191406 37.789062 59.042969 L 34.96875 57.585938 C 34.6875 57.441406 34.339844 57.550781 34.195312 57.832031 C 34.050781 58.113281 34.160156 58.460938 34.441406 58.605469 L 37.261719 60.0625 C 37.542969 60.207031 37.890625 60.097656 38.035156 59.816406 Z M 38.035156 59.816406"/><path fill="#EB695C" d="M 24.078125 32.328125 C 24.078125 32.328125 26.867188 13.878906 34.105469 16.328125 C 40.691406 18.550781 36.320312 33.707031 36.320312 33.707031 C 35.800781 34.71875 24.160156 33.320312 24.078125 32.328125 Z M 24.078125 32.328125"/><path fill="#E55851" d="M 33.980469 16.289062 C 26.835938 14.097656 24.078125 32.328125 24.078125 32.328125 C 24.136719 33.058594 30.4375 34.007812 33.980469 34.058594 Z M 33.980469 16.289062"/><path fill="#2A2A51" d="M 37.710938 25.4375 C 37.710938 25.4375 37.707031 25.4375 37.707031 25.4375 C 37.675781 25.4375 37.648438 25.410156 37.652344 25.375 C 37.835938 21.644531 37.226562 18.996094 35.835938 17.511719 C 35.816406 17.488281 35.816406 17.449219 35.839844 17.425781 C 35.863281 17.40625 35.902344 17.40625 35.925781 17.429688 C 37.335938 18.941406 37.957031 21.617188 37.769531 25.382812 C 37.769531 25.414062 37.742188 25.4375 37.710938 25.4375 Z M 37.710938 25.4375"/><path fill="#2A2A51" d="M 23.160156 30.492188 C 22.910156 30.492188 22.652344 30.484375 22.394531 30.472656 L 22.449219 29.253906 C 31.003906 29.640625 36.113281 22.65625 36.164062 22.585938 L 37.160156 23.292969 C 36.945312 23.597656 31.910156 30.492188 23.160156 30.492188 Z M 23.160156 30.492188"/><path fill="#E55851" d="M 36.121094 17.75 C 36.121094 17.75 36.035156 17.15625 36.597656 17.011719 C 37.15625 16.867188 33.972656 14.601562 33.339844 14.527344 C 32.710938 14.449219 32.210938 15.835938 32.761719 16.105469 C 33.308594 16.371094 35.457031 17.054688 36.121094 17.75 Z M 36.121094 17.75"/><path fill="#2A2A51" d="M 36.121094 17.808594 C 36.105469 17.808594 36.089844 17.800781 36.078125 17.789062 C 35.59375 17.285156 34.292969 16.777344 33.433594 16.445312 C 33.125 16.324219 32.878906 16.226562 32.734375 16.15625 C 32.714844 16.148438 32.695312 16.136719 32.675781 16.125 C 32.652344 16.105469 32.644531 16.070312 32.664062 16.042969 C 32.679688 16.015625 32.71875 16.007812 32.746094 16.027344 C 32.757812 16.035156 32.773438 16.042969 32.785156 16.050781 C 32.925781 16.117188 33.179688 16.21875 33.476562 16.332031 C 34.347656 16.671875 35.664062 17.183594 36.164062 17.707031 C 36.1875 17.730469 36.1875 17.769531 36.160156 17.792969 C 36.148438 17.804688 36.136719 17.808594 36.121094 17.808594 Z M 36.121094 17.808594"/><path fill="#FFDA90" d="M 29.179688 17.015625 L 23.984375 31.882812 C 23.667969 32.789062 22.679688 33.265625 21.773438 32.949219 L 7.875 28.121094 C 6.96875 27.808594 6.492188 26.820312 6.808594 25.917969 L 12.003906 11.046875 C 12.320312 10.144531 13.308594 9.667969 14.214844 9.980469 L 28.113281 14.808594 C 29.015625 15.125 29.496094 16.113281 29.179688 17.015625 Z M 29.179688 17.015625"/><path fill="#F4BF6C" d="M 29.179688 17.015625 L 28.484375 19.015625 L 11.304688 13.046875 L 12.003906 11.046875 C 12.320312 10.144531 13.308594 9.667969 14.214844 9.980469 L 28.113281 14.808594 C 29.015625 15.125 29.496094 16.113281 29.179688 17.015625 Z M 29.179688 17.015625"/><path fill="#2A2A51" d="M 15.578125 14.574219 L 16.859375 10.898438 L 18.148438 11.347656 L 16.867188 15.023438 Z M 15.578125 14.574219"/><path fill="#2A2A51" d="M 22.894531 17.117188 L 24.175781 13.441406 L 25.46875 13.890625 L 24.183594 17.566406 Z M 22.894531 17.117188"/><path fill="#F4BF6C" d="M 21.945312 21.410156 L 20.390625 25.871094 C 20.28125 26.183594 19.941406 26.347656 19.628906 26.238281 L 13.753906 24.199219 C 13.441406 24.089844 13.277344 23.75 13.386719 23.4375 L 14.941406 18.976562 C 14.960938 18.917969 14.992188 18.863281 15.027344 18.816406 C 15.175781 18.613281 15.449219 18.519531 15.703125 18.609375 L 21.578125 20.652344 C 21.832031 20.738281 21.988281 20.980469 21.980469 21.234375 C 21.976562 21.292969 21.96875 21.351562 21.945312 21.410156 Z M 21.945312 21.410156"/><path fill="#F2B361" d="M 21.980469 21.234375 C 21.269531 22.636719 19.609375 23.335938 18.082031 22.804688 L 17.097656 22.464844 C 15.570312 21.933594 14.707031 20.359375 15.027344 18.816406 C 15.175781 18.613281 15.449219 18.519531 15.703125 18.609375 L 21.578125 20.652344 C 21.832031 20.738281 21.988281 20.980469 21.980469 21.234375 Z M 21.980469 21.234375"/><path fill="#2A2A51" d="M 35.625 52.652344 C 35.625 52.652344 35.089844 53.5 35.269531 53.792969 C 35.65625 54.433594 37.796875 55.023438 38.460938 54.667969 C 38.75 54.515625 38.910156 53.730469 38.746094 53.535156 C 38.578125 53.339844 35.625 52.652344 35.625 52.652344 Z M 35.625 52.652344"/><path fill="#2A2A51" d="M 40.660156 59.167969 C 40.511719 59.660156 40.011719 59.90625 39.308594 59.808594 C 38.324219 59.667969 36.746094 58.597656 36.214844 58.21875 C 36.097656 58.132812 35.960938 58.074219 35.820312 58.046875 C 35.292969 57.9375 33.949219 57.621094 33.519531 57.15625 C 33.253906 56.871094 33.589844 56.175781 33.941406 55.601562 C 33.6875 56.078125 33.515625 56.566406 33.726562 56.792969 C 34.15625 57.261719 35.5 57.578125 36.023438 57.6875 C 36.167969 57.71875 36.304688 57.777344 36.421875 57.863281 C 36.953125 58.242188 38.53125 59.3125 39.515625 59.449219 C 40.019531 59.523438 40.417969 59.417969 40.660156 59.167969 Z M 40.660156 59.167969"/><path fill="#FFDA90" d="M 40.214844 59.417969 C 40.015625 59.476562 39.78125 59.484375 39.515625 59.449219 C 38.53125 59.3125 36.953125 58.242188 36.421875 57.863281 C 36.300781 57.777344 36.167969 57.714844 36.023438 57.691406 C 35.527344 57.585938 34.300781 57.296875 33.808594 56.871094 C 33.773438 56.847656 33.746094 56.824219 33.722656 56.796875 C 33.246094 56.285156 34.742188 54.40625 34.742188 54.40625 L 35.109375 53.738281 L 35.242188 53.511719 C 35.207031 53.644531 38.472656 54.625 38.675781 54.40625 C 38.675781 54.40625 38.6875 55.054688 38.769531 55.480469 C 38.789062 55.605469 38.820312 55.707031 38.855469 55.773438 C 38.882812 55.824219 38.917969 55.871094 38.960938 55.917969 C 39.019531 55.988281 39.082031 56.050781 39.160156 56.113281 C 39.207031 56.160156 39.261719 56.203125 39.320312 56.25 C 39.394531 56.308594 39.46875 56.363281 39.550781 56.421875 C 39.839844 56.640625 40.160156 56.875 40.390625 57.160156 C 40.464844 57.25 40.53125 57.339844 40.585938 57.441406 C 41.15625 58.492188 40.914062 59.226562 40.214844 59.417969 Z M 40.214844 59.417969"/><path fill="#2A2A51" d="M 38.855469 55.773438 C 38.855469 55.777344 38.851562 55.773438 38.851562 55.777344 C 38.773438 55.839844 38.683594 55.894531 38.589844 55.929688 C 38.550781 55.941406 38.496094 55.953125 38.46875 55.921875 C 38.449219 55.902344 38.445312 55.875 38.453125 55.847656 C 38.457031 55.824219 38.472656 55.800781 38.484375 55.78125 C 38.554688 55.679688 38.636719 55.589844 38.730469 55.511719 C 38.742188 55.503906 38.753906 55.492188 38.769531 55.480469 C 38.789062 55.605469 38.820312 55.707031 38.855469 55.773438 Z M 38.855469 55.773438"/><path fill="#2A2A51" d="M 39.160156 56.113281 C 39.15625 56.117188 39.148438 56.125 39.144531 56.128906 C 39.066406 56.191406 38.980469 56.242188 38.886719 56.277344 C 38.84375 56.289062 38.789062 56.300781 38.761719 56.269531 C 38.746094 56.25 38.742188 56.222656 38.746094 56.199219 C 38.753906 56.175781 38.765625 56.152344 38.78125 56.132812 C 38.832031 56.054688 38.890625 55.984375 38.960938 55.917969 C 39.019531 55.988281 39.082031 56.050781 39.160156 56.113281 Z M 39.160156 56.113281"/><path fill="#2A2A51" d="M 39.550781 56.421875 C 39.53125 56.4375 39.519531 56.449219 39.503906 56.460938 C 39.425781 56.523438 39.339844 56.574219 39.246094 56.613281 C 39.203125 56.625 39.152344 56.632812 39.121094 56.601562 C 39.105469 56.582031 39.101562 56.554688 39.105469 56.53125 C 39.113281 56.507812 39.125 56.484375 39.140625 56.464844 C 39.191406 56.386719 39.25 56.316406 39.320312 56.25 C 39.394531 56.308594 39.46875 56.363281 39.550781 56.421875 Z M 39.550781 56.421875"/><path fill="#F4BF6C" d="M 39.507812 58.484375 C 39.566406 58.914062 39.84375 59.261719 40.214844 59.417969 C 40.914062 59.222656 41.15625 58.492188 40.585938 57.441406 C 40.53125 57.339844 40.464844 57.25 40.390625 57.160156 C 39.816406 57.308594 39.421875 57.871094 39.507812 58.484375 Z M 39.507812 58.484375"/><path fill="#F4BF6C" d="M 33.722656 56.796875 C 33.75 56.824219 33.773438 56.847656 33.804688 56.871094 C 33.859375 56.871094 33.921875 56.867188 33.980469 56.855469 C 35.007812 56.71875 35.726562 55.769531 35.585938 54.746094 C 35.53125 54.355469 35.359375 54.007812 35.109375 53.738281 L 34.738281 54.40625 C 34.738281 54.40625 33.246094 56.285156 33.722656 56.796875 Z M 33.722656 56.796875"/><path fill="#444577" d="M 39.105469 53.949219 C 39.03125 54.160156 38.019531 53.925781 37.0625 53.59375 C 36.140625 53.269531 35.261719 52.855469 35.335938 52.648438 C 35.335938 52.648438 38.652344 42.589844 38.097656 41.671875 C 37.074219 39.96875 32.496094 40.9375 26.011719 40.019531 C 19.535156 39.105469 24.078125 32.328125 24.078125 32.328125 C 24.832031 32.644531 25.601562 32.90625 26.386719 33.121094 C 29.484375 33.953125 32.839844 34.023438 36.324219 33.707031 C 42.261719 34.761719 44.367188 36.253906 44.945312 39.070312 C 45.703125 42.757812 39.105469 53.949219 39.105469 53.949219 Z M 39.105469 53.949219"/><path fill="#2A2A51" d="M 42.289062 43.640625 C 41.996094 45.871094 40.75 47.847656 39.53125 49.746094 C 38.710938 51.027344 37.886719 52.308594 37.0625 53.59375 C 36.140625 53.269531 35.261719 52.855469 35.335938 52.648438 C 35.335938 52.648438 38.652344 42.589844 38.097656 41.671875 C 37.074219 39.96875 32.496094 40.9375 26.011719 40.019531 C 19.535156 39.105469 24.078125 32.328125 24.078125 32.328125 C 24.832031 32.644531 25.601562 32.90625 26.386719 33.121094 C 26.058594 34.097656 26.449219 35.339844 27.164062 36.027344 C 27.882812 36.71875 28.894531 37.003906 29.871094 37.203125 C 31.761719 37.589844 33.703125 37.75 35.632812 37.675781 C 36.960938 37.621094 38.34375 37.472656 39.570312 37.980469 C 41.652344 38.84375 42.589844 41.410156 42.289062 43.640625 Z M 42.289062 43.640625"/><path fill="#2A2A51" d="M 48.925781 38.90625 C 48.523438 38.90625 48.152344 38.640625 48.042969 38.234375 L 46.691406 33.367188 C 46.636719 33.167969 46.507812 33.003906 46.328125 32.90625 C 46.148438 32.804688 45.941406 32.78125 45.742188 32.835938 L 42.941406 33.644531 C 42.453125 33.785156 41.945312 33.503906 41.804688 33.015625 C 41.664062 32.53125 41.945312 32.023438 42.429688 31.882812 L 45.234375 31.078125 C 45.90625 30.882812 46.613281 30.964844 47.222656 31.304688 C 47.832031 31.648438 48.273438 32.207031 48.460938 32.878906 L 49.808594 37.746094 C 49.945312 38.234375 49.660156 38.738281 49.171875 38.871094 C 49.089844 38.894531 49.007812 38.90625 48.925781 38.90625 Z M 48.925781 38.90625"/><path fill="#FFB0B0" d="M 43.765625 27.75 C 43.765625 27.75 46.996094 28.175781 47.828125 29.828125 C 48.59375 31.34375 47.890625 33.171875 47.285156 33.304688 C 46.828125 33.40625 46.769531 32.652344 46.769531 32.652344 C 46.769531 32.652344 46.335938 33.234375 46.03125 33.082031 C 45.714844 32.921875 45.914062 32.347656 45.914062 32.347656 C 45.914062 32.347656 45.671875 32.914062 45.328125 32.78125 C 44.984375 32.648438 45.046875 32.058594 45.179688 31.679688 C 45.3125 31.304688 45.335938 30.179688 43.988281 30.121094 Z M 43.765625 27.75"/><path fill="#2A2A51" d="M 46.769531 32.703125 C 46.753906 32.703125 46.742188 32.699219 46.734375 32.691406 C 46.707031 32.671875 46.699219 32.632812 46.71875 32.609375 C 47.144531 32.03125 47.054688 30.925781 47.050781 30.917969 C 47.050781 30.882812 47.074219 30.855469 47.105469 30.851562 C 47.140625 30.847656 47.167969 30.871094 47.171875 30.90625 C 47.175781 30.953125 47.269531 32.066406 46.816406 32.679688 C 46.804688 32.695312 46.785156 32.703125 46.769531 32.703125 Z M 46.769531 32.703125"/><path fill="#2A2A51" d="M 45.898438 32.429688 C 45.882812 32.429688 45.871094 32.425781 45.863281 32.417969 C 45.835938 32.398438 45.828125 32.363281 45.847656 32.335938 C 46.273438 31.757812 46.183594 30.65625 46.179688 30.644531 C 46.179688 30.613281 46.203125 30.582031 46.234375 30.582031 C 46.273438 30.578125 46.296875 30.601562 46.300781 30.632812 C 46.304688 30.679688 46.398438 31.792969 45.945312 32.40625 C 45.933594 32.421875 45.914062 32.429688 45.898438 32.429688 Z M 45.898438 32.429688"/><path fill="#151460" d="M 44.574219 27.851562 C 44.574219 27.851562 45.625 27.722656 45.4375 28.507812 C 45.253906 29.289062 45.230469 30.476562 44.402344 30.53125 Z M 44.574219 27.851562"/><path fill="#E55851" d="M 31.453125 17.972656 C 30.800781 18.261719 30.433594 18.972656 30.476562 19.6875 C 30.585938 21.554688 32.078125 25.945312 34.765625 28.316406 C 37.539062 30.761719 42.386719 31.425781 44.410156 30.675781 C 45.097656 30.421875 45.128906 28.386719 44.738281 27.769531 C 43.847656 26.351562 39.191406 26.675781 37.722656 23.488281 C 36.253906 20.296875 35.953125 18.144531 32.976562 17.765625 C 32.382812 17.714844 31.875 17.785156 31.453125 17.972656 Z M 31.453125 17.972656"/><path fill="#2A2A51" d="M 37.15625 29.878906 C 37.148438 29.878906 37.140625 29.878906 37.132812 29.875 C 36.199219 29.453125 35.386719 28.945312 34.726562 28.359375 C 31.929688 25.894531 30.519531 21.425781 30.417969 19.691406 C 30.371094 18.921875 30.777344 18.207031 31.429688 17.917969 C 31.859375 17.726562 32.382812 17.652344 32.984375 17.707031 C 34.15625 17.855469 34.96875 18.273438 35.617188 19.058594 C 35.636719 19.085938 35.632812 19.121094 35.609375 19.144531 C 35.582031 19.164062 35.546875 19.160156 35.523438 19.136719 C 34.898438 18.375 34.109375 17.96875 32.96875 17.824219 C 32.390625 17.773438 31.890625 17.84375 31.476562 18.027344 C 30.871094 18.296875 30.492188 18.960938 30.535156 19.683594 C 30.636719 21.402344 32.035156 25.828125 34.804688 28.269531 C 35.457031 28.847656 36.257812 29.351562 37.183594 29.765625 C 37.210938 29.78125 37.226562 29.816406 37.210938 29.84375 C 37.203125 29.867188 37.179688 29.878906 37.15625 29.878906 Z M 37.15625 29.878906"/><path fill="#151460" d="M 47.976562 20.25 C 47.976562 20.25 48.796875 19.585938 49.03125 20.300781 C 49.269531 21.019531 49.84375 21.964844 49.171875 22.449219 C 48.902344 22.59375 47.707031 20.394531 47.976562 20.25 Z M 47.976562 20.25"/><path fill="#FFB0B0" d="M 53.40625 19.246094 C 53.058594 20.628906 49.484375 21.847656 49.484375 21.847656 C 49.257812 21.9375 48.53125 20.136719 48.757812 20.046875 C 48.757812 20.046875 49.464844 19.238281 49.6875 18.613281 C 49.910156 17.984375 49.605469 16.460938 49.992188 15.972656 C 50.324219 15.542969 50.800781 15.675781 50.757812 16.503906 L 51.859375 16.625 C 52.164062 16.375 53.757812 17.867188 53.40625 19.246094 Z M 53.40625 19.246094"/><path fill="#FFB0B0" d="M 48.757812 20.046875 C 48.757812 20.046875 49.464844 19.238281 49.6875 18.609375 C 49.910156 17.984375 49.609375 16.464844 49.988281 15.972656 C 50.371094 15.480469 50.941406 15.726562 50.703125 16.890625"/><path fill="#151460" d="M 56.207031 13.597656 C 56.246094 13.675781 56.207031 13.800781 56.105469 13.941406 L 51.378906 20.0625 C 51.199219 20.296875 50.890625 20.488281 50.6875 20.488281 L 47.714844 20.488281 C 47.691406 20.488281 47.671875 20.488281 47.652344 20.476562 C 47.425781 20.453125 47.34375 20.253906 47.320312 20.15625 C 47.34375 20.199219 47.394531 20.230469 47.472656 20.230469 L 50.425781 20.230469 C 50.628906 20.230469 50.9375 20.039062 51.125 19.804688 L 55.84375 13.683594 C 56.023438 13.453125 56.003906 13.269531 55.820312 13.261719 C 55.824219 13.257812 55.824219 13.257812 55.832031 13.257812 C 56.054688 13.257812 56.214844 13.589844 56.214844 13.589844 Z M 56.207031 13.597656"/><path fill="#2A2A51" d="M 55.847656 13.683594 L 51.121094 19.804688 C 50.941406 20.039062 50.628906 20.226562 50.425781 20.226562 L 47.472656 20.226562 C 47.269531 20.226562 47.25 20.039062 47.429688 19.804688 L 52.15625 13.683594 C 52.335938 13.449219 52.644531 13.257812 52.851562 13.257812 L 55.804688 13.257812 C 56.007812 13.257812 56.027344 13.449219 55.847656 13.683594 Z M 55.847656 13.683594"/><path fill="#7F8CDD" d="M 48.671875 18.679688 L 52.089844 14.277344 C 52.214844 14.113281 52.429688 13.984375 52.570312 13.984375 L 54.972656 14.003906 C 55.113281 14.007812 55.125 14.136719 55 14.296875 L 51.597656 18.679688 C 51.472656 18.839844 51.257812 18.972656 51.117188 18.972656 L 48.699219 18.972656 C 48.558594 18.972656 48.546875 18.839844 48.671875 18.679688 Z M 48.671875 18.679688"/><path fill="#FFF" d="M 49.523438 19.582031 C 49.410156 19.726562 49.21875 19.84375 49.09375 19.84375 C 48.964844 19.84375 48.953125 19.726562 49.066406 19.582031 C 49.175781 19.4375 49.367188 19.320312 49.496094 19.320312 C 49.621094 19.320312 49.632812 19.4375 49.523438 19.582031 Z M 49.523438 19.582031"/><path fill="#FFF" d="M 54.386719 13.652344 C 54.351562 13.699219 54.292969 13.734375 54.25 13.734375 L 53.523438 13.734375 C 53.480469 13.734375 53.476562 13.699219 53.511719 13.652344 C 53.550781 13.605469 53.609375 13.566406 53.652344 13.566406 L 54.378906 13.566406 C 54.421875 13.566406 54.425781 13.605469 54.386719 13.652344 Z M 54.386719 13.652344"/><path fill="#FFB0B0" d="M 36.882812 11.191406 C 36.882812 11.523438 36.613281 11.792969 36.277344 11.792969 C 35.945312 11.792969 35.671875 11.523438 35.671875 11.191406 C 35.671875 10.859375 35.945312 10.589844 36.277344 10.589844 C 36.613281 10.589844 36.882812 10.859375 36.882812 11.191406 Z M 36.882812 11.191406"/><path fill="#2A2A51" d="M 37.289062 15.503906 C 37.289062 15.503906 36.894531 14.773438 36.703125 14.523438 C 36.488281 14.242188 36.359375 15.261719 36.996094 15.894531 Z M 37.289062 15.503906"/><path fill="#FFB0B0" d="M 49.484375 21.847656 C 49.484375 21.847656 53.058594 20.625 53.40625 19.246094 C 53.753906 17.863281 52.164062 16.375 51.859375 16.625 C 51.609375 16.832031 52.414062 17.605469 52.414062 17.605469 C 52.414062 17.605469 51.417969 16.636719 51.230469 16.859375 C 51.042969 17.089844 51.9375 17.796875 51.9375 17.796875 C 51.9375 17.796875 51.082031 17.167969 50.972656 17.398438 C 50.828125 17.703125 51.535156 18.050781 51.535156 18.050781 C 51.535156 18.050781 50.957031 17.703125 50.871094 17.953125 C 50.804688 18.148438 51.519531 18.628906 51.519531 18.628906 C 51.519531 18.628906 52.019531 19.089844 51.523438 19.648438"/><path fill="#2A2A51" d="M 38.582031 11.613281 C 38.679688 11.636719 38.769531 11.699219 38.855469 11.761719 C 38.941406 11.828125 39.027344 11.894531 39.121094 11.929688 C 39.164062 11.941406 39.207031 11.949219 39.25 11.925781 C 39.316406 11.886719 39.355469 11.769531 39.34375 11.671875 C 39.332031 11.574219 39.28125 11.496094 39.21875 11.453125 C 39.15625 11.40625 39.089844 11.390625 39.019531 11.375 C 38.898438 11.34375 38.777344 11.316406 38.65625 11.285156 C 38.589844 11.269531 38.519531 11.253906 38.449219 11.269531 C 38.378906 11.28125 38.308594 11.332031 38.269531 11.421875 C 38.238281 11.492188 38.230469 11.707031 38.316406 11.675781 C 38.359375 11.660156 38.398438 11.621094 38.445312 11.613281 C 38.488281 11.601562 38.535156 11.601562 38.582031 11.613281 Z M 38.582031 11.613281"/><path fill="#2A2A51" d="M 38.871094 12.203125 C 38.996094 12.21875 39.046875 12.316406 39.023438 12.5 C 39.003906 12.679688 38.929688 12.761719 38.804688 12.746094 C 38.679688 12.734375 38.625 12.632812 38.648438 12.453125 C 38.671875 12.273438 38.746094 12.191406 38.871094 12.203125 Z M 38.871094 12.203125"/><path fill="#2A2A51" d="M 40.007812 12.125 C 40.082031 12.144531 40.152344 12.203125 40.214844 12.265625 C 40.28125 12.328125 40.347656 12.390625 40.421875 12.421875 C 40.453125 12.433594 40.488281 12.441406 40.523438 12.417969 C 40.578125 12.375 40.609375 12.253906 40.601562 12.15625 C 40.597656 12.0625 40.558594 11.988281 40.511719 11.945312 C 40.464844 11.902344 40.410156 11.886719 40.359375 11.875 C 40.265625 11.847656 40.171875 11.824219 40.074219 11.796875 C 40.023438 11.785156 39.96875 11.769531 39.914062 11.785156 C 39.859375 11.804688 39.800781 11.855469 39.765625 11.945312 C 39.742188 12.019531 39.726562 12.234375 39.796875 12.195312 C 39.832031 12.179688 39.863281 12.140625 39.898438 12.128906 C 39.933594 12.117188 39.972656 12.117188 40.007812 12.125 Z M 40.007812 12.125"/><path fill="#2A2A51" d="M 40.011719 12.597656 C 40.136719 12.609375 40.1875 12.710938 40.167969 12.890625 C 40.144531 13.070312 40.070312 13.152344 39.945312 13.136719 C 39.820312 13.125 39.769531 13.027344 39.792969 12.84375 C 39.8125 12.664062 39.886719 12.582031 40.011719 12.597656 Z M 40.011719 12.597656"/><path fill="#2A2A51" d="M 39.304688 14.101562 C 39.292969 14.101562 39.277344 14.097656 39.265625 14.097656 C 39.085938 14.070312 38.96875 13.890625 38.964844 13.882812 C 38.953125 13.867188 38.960938 13.847656 38.972656 13.839844 C 38.988281 13.832031 39.003906 13.835938 39.015625 13.847656 C 39.015625 13.851562 39.125 14.015625 39.273438 14.039062 C 39.34375 14.046875 39.414062 14.023438 39.484375 13.964844 C 39.496094 13.953125 39.515625 13.957031 39.527344 13.96875 C 39.539062 13.980469 39.535156 14 39.523438 14.011719 C 39.453125 14.070312 39.378906 14.101562 39.304688 14.101562 Z M 39.304688 14.101562"/><path fill="#2A2A51" d="M 39.269531 13.425781 C 39.253906 13.425781 39.242188 13.414062 39.238281 13.398438 C 39.238281 13.382812 39.25 13.367188 39.265625 13.363281 C 39.304688 13.359375 39.347656 13.351562 39.382812 13.339844 C 39.421875 13.324219 39.449219 13.300781 39.464844 13.273438 C 39.480469 13.242188 39.480469 13.207031 39.460938 13.183594 C 39.449219 13.171875 39.433594 13.160156 39.417969 13.152344 C 39.398438 13.140625 39.378906 13.125 39.359375 13.105469 C 39.320312 13.054688 39.328125 12.988281 39.339844 12.925781 L 39.417969 12.492188 C 39.421875 12.476562 39.433594 12.464844 39.453125 12.46875 C 39.46875 12.472656 39.480469 12.484375 39.476562 12.503906 L 39.398438 12.9375 C 39.390625 12.984375 39.382812 13.035156 39.40625 13.066406 C 39.417969 13.082031 39.433594 13.089844 39.449219 13.101562 C 39.46875 13.113281 39.492188 13.125 39.507812 13.148438 C 39.539062 13.1875 39.542969 13.25 39.515625 13.300781 C 39.488281 13.351562 39.441406 13.378906 39.40625 13.394531 C 39.363281 13.410156 39.316406 13.417969 39.273438 13.425781 C 39.273438 13.425781 39.269531 13.425781 39.269531 13.425781 Z M 39.269531 13.425781"/><path fill="#2A2A51" d="M 36.457031 53.359375 C 36.449219 53.359375 36.445312 53.359375 36.4375 53.355469 C 36.40625 53.347656 36.390625 53.3125 36.398438 53.28125 C 36.683594 52.363281 37.382812 50.429688 38.058594 48.5625 C 38.734375 46.695312 39.429688 44.765625 39.714844 43.851562 C 39.9375 43.132812 40.167969 42.390625 40.203125 41.625 C 40.246094 40.78125 40.023438 40.03125 39.582031 39.515625 C 39.097656 38.953125 38.386719 38.699219 37.878906 38.582031 C 37.699219 38.542969 37.105469 38.46875 36.28125 38.363281 C 34.078125 38.085938 30.382812 37.621094 28.691406 37.082031 C 28.109375 36.898438 27.457031 36.652344 27.128906 36.097656 C 26.851562 35.621094 26.863281 34.980469 27.160156 34.378906 C 27.421875 33.84375 27.84375 33.425781 28.253906 33.015625 C 28.277344 32.992188 28.3125 32.992188 28.335938 33.015625 C 28.359375 33.039062 28.359375 33.078125 28.335938 33.101562 C 27.9375 33.5 27.523438 33.914062 27.269531 34.429688 C 26.992188 34.988281 26.980469 35.601562 27.234375 36.035156 C 27.539062 36.558594 28.167969 36.789062 28.730469 36.96875 C 30.410156 37.503906 34.09375 37.96875 36.296875 38.246094 C 37.125 38.351562 37.71875 38.425781 37.902344 38.46875 C 38.660156 38.636719 39.273438 38.972656 39.671875 39.4375 C 40.132812 39.976562 40.367188 40.757812 40.324219 41.632812 C 40.285156 42.410156 40.054688 43.160156 39.828125 43.886719 C 39.542969 44.804688 38.847656 46.738281 38.171875 48.605469 C 37.496094 50.46875 36.796875 52.402344 36.511719 53.316406 C 36.503906 53.34375 36.480469 53.359375 36.457031 53.359375 Z M 36.457031 53.359375"/><path fill="#080A0A" d="M 53.066406 18.65625 C 53.039062 18.65625 53.011719 18.636719 53.007812 18.609375 C 52.871094 17.84375 52.410156 17.667969 52.390625 17.660156 C 52.363281 17.648438 52.34375 17.613281 52.355469 17.585938 C 52.367188 17.554688 52.402344 17.539062 52.433594 17.546875 C 52.453125 17.554688 52.976562 17.75 53.125 18.589844 C 53.128906 18.621094 53.109375 18.652344 53.078125 18.65625 C 53.074219 18.65625 53.070312 18.65625 53.066406 18.65625 Z M 53.066406 18.65625"/><path fill="#080A0A" d="M 52.542969 18.808594 C 52.515625 18.808594 52.492188 18.789062 52.484375 18.757812 C 52.347656 17.992188 51.890625 17.816406 51.871094 17.808594 C 51.839844 17.796875 51.824219 17.765625 51.835938 17.734375 C 51.847656 17.703125 51.878906 17.6875 51.910156 17.699219 C 51.933594 17.707031 52.453125 17.898438 52.601562 18.738281 C 52.609375 18.769531 52.585938 18.800781 52.554688 18.808594 C 52.550781 18.808594 52.546875 18.808594 52.542969 18.808594 Z M 52.542969 18.808594"/><path fill="#080A0A" d="M 52.070312 19.03125 C 52.042969 19.03125 52.015625 19.011719 52.011719 18.980469 C 51.875 18.214844 51.417969 18.039062 51.398438 18.03125 C 51.367188 18.023438 51.351562 17.988281 51.359375 17.957031 C 51.371094 17.925781 51.40625 17.910156 51.4375 17.921875 C 51.460938 17.929688 51.980469 18.125 52.128906 18.960938 C 52.132812 18.992188 52.113281 19.023438 52.082031 19.03125 C 52.078125 19.03125 52.074219 19.03125 52.070312 19.03125 Z M 52.070312 19.03125"/><path fill="#F4F2F2" d="M 79.121094 18.847656 C 79.214844 18.453125 79.238281 18.035156 79.191406 17.628906 C 79.121094 17.058594 78.917969 16.492188 78.539062 16.058594 C 78.160156 15.625 77.597656 15.339844 77.019531 15.363281 C 76.445312 15.386719 75.878906 15.753906 75.6875 16.292969 C 75.324219 14.703125 73.792969 13.457031 72.160156 13.421875 C 70.527344 13.386719 68.941406 14.566406 68.511719 16.140625 C 67.949219 15.5625 67.152344 15.21875 66.347656 15.214844 C 65.542969 15.207031 64.738281 15.535156 64.167969 16.105469 C 63.542969 16.726562 63.214844 17.613281 63.164062 18.496094 C 63.160156 18.613281 63.160156 18.730469 63.164062 18.847656 Z M 79.121094 18.847656"/></svg>